<svg xmlns="http://www.w3.org/2000/svg" aria-label="Hide visualizer" aria-hidden="true" class="icon" fill="currentColor" height="24" role="img" viewBox="0 0 24 24" width="24"><path d="M9 0C8.44771 0 8 0.447716 8 1V23C8 23.5523 8.44771 24 9 24C9.55229 24 10 23.5523 10 23V1C10 0.447715 9.55229 0 9 0ZM4 5C4 4.44772 4.44772 4 5 4C5.55228 4 6 4.44772 6 5V19C6 19.5523 5.55228 20 5 20C4.44772 20 4 19.5523 4 19V5ZM0 10C0 9.44772 0.447715 9 1 9C1.55228 9 2 9.44772 2 10V14C2 14.5523 1.55228 15 1 15C0.447715 15 0 14.5523 0 14V10ZM12 12C12 11.4477 12.4477 11 13 11C13.5523 11 14 11.4477 14 12V17C14 17.5523 13.5523 18 13 18C12.4477 18 12 17.5523 12 17V12ZM20.7296 1.27036C21.0574 1.59808 21.0871 2.11089 20.819 2.47226L20.7296 2.57579L18.3058 5L20.7296 7.42421C21.0901 7.78469 21.0901 8.36915 20.7296 8.72964C20.4019 9.05735 19.8891 9.08714 19.5277 8.81901L19.4242 8.72964L17 6.30585L14.5758 8.72964C14.2153 9.09012 13.6308 9.09012 13.2704 8.72964C12.9427 8.40192 12.9129 7.88911 13.181 7.52774L13.2704 7.42421L15.6942 5L13.2704 2.57579C12.9099 2.21531 12.9099 1.63085 13.2704 1.27036C13.5617 0.979063 13.9992 0.923157 14.3467 1.10264L14.4723 1.18099L14.5758 1.27036L17 3.69415L19.4242 1.27036C19.7847 0.909879 20.3692 0.909879 20.7296 1.27036ZM16 14C16 13.4477 16.4477 13 17 13C17.5523 13 18 13.4477 18 14V21C18 21.5523 17.5523 22 17 22C16.4477 22 16 21.5523 16 21V14ZM21 11C20.4477 11 20 11.4477 20 12V15C20 15.5523 20.4477 16 21 16C21.5523 16 22 15.5523 22 15V12C22 11.4477 21.5523 11 21 11Z"></path></svg>