<svg xmlns="http://www.w3.org/2000/svg" aria-label="Info" aria-hidden="true" class="icon" fill="currentColor" height="24" role="img" viewBox="0 0 24 24" width="24"><path d="M24 12C24 5.37258 18.6274 0 12 0C5.37258 0 0 5.37258 0 12C0 18.6274 5.37258 24 12 24C18.6274 24 24 18.6274 24 12ZM2 12C2 6.47715 6.47715 2 12 2C17.5228 2 22 6.47715 22 12C22 17.5228 17.5228 22 12 22C6.47715 22 2 17.5228 2 12ZM12.9933 9.88338C12.9355 9.38604 12.5128 9 12 9H10C9.44771 9 9 9.44771 9 10C9 10.5523 9.44771 11 10 11H11V17H9C8.44771 17 8 17.4477 8 18C8 18.5523 8.44771 19 9 19H12H15C15.5523 19 16 18.5523 16 18C16 17.4477 15.5523 17 15 17H13V10C13 9.96055 12.9977 9.92164 12.9933 9.88338ZM11.5 7C12.3284 7 13 6.32843 13 5.5C13 4.67157 12.3284 4 11.5 4C10.6716 4 10 4.67157 10 5.5C10 6.32843 10.6716 7 11.5 7Z"></path></svg>