<svg xmlns="http://www.w3.org/2000/svg" aria-label="Rewind 15 seconds" aria-hidden="true" class="icon" fill="currentColor" height="24" role="img" viewBox="0 0 24 24" width="24"><path d="M12,0 C18.627417,0 24,5.372583 24,12 C24,18.627417 18.627417,24 12,24 C5.372583,24 0,18.627417 0,12 C0,11.4477153 0.44771525,11 1,11 C1.55228475,11 2,11.4477153 2,12 C2,17.5228475 6.4771525,22 12,22 C17.5228475,22 22,17.5228475 22,12 C22,6.4771525 17.5228475,2 12,2 C9.92479712,2 7.94892059,2.63315701 6.29171478,3.78798729 L6.29171478,3.78798729 L7.12178079,4.77904449 C7.23424317,4.91324358 7.29623177,5.08550197 7.29623177,5.26382145 C7.29623177,5.67040164 6.98056077,6 6.59116084,6 L6.59116084,6 L3.00142936,6 C2.957837,6 2.91433858,5.99577888 2.87149287,5.98739087 C2.48876251,5.9124628 2.23667281,5.52776854 2.30843475,5.12815219 L2.30843475,5.12815219 L2.94191678,1.60051937 C2.97105977,1.43823258 3.05160809,1.2908867 3.17061893,1.18215782 C3.46367223,0.914422891 3.90910969,0.945428897 4.16553133,1.25141167 L4.16553133,1.25141167 L5.00220371,2.250502 C7.02061156,0.79891615 9.45005293,0 12,0 Z M16,7 C16.5522847,7 17,7.44771525 17,8 C17,8.51283584 16.6139598,8.93550716 16.1166211,8.99327227 L16,9 L12.999,9 L12.999,10.5 L14,10.5 L14.1920352,10.5051789 C16.0357224,10.6048736 17.5,12.1314366 17.5,14 C17.5,15.9329966 15.9329966,17.5 14,17.5 C12.5994732,17.5 11.6431081,17.0539791 10.8101872,16.2290468 C10.4177857,15.8404089 10.4147347,15.2072513 10.8033726,14.8148497 C11.1920106,14.4224481 11.8251682,14.4193971 12.2175698,14.8080351 C12.6965544,15.2824257 13.1630806,15.5 14,15.5 C14.8284271,15.5 15.5,14.8284271 15.5,14 C15.5,13.2203039 14.9051119,12.5795513 14.14446,12.5068666 L14,12.5 L11.993,12.5 L11.8668252,12.4930296 C11.353151,12.4379228 11.0677765,12.0639838 11.0107015,11.6546189 L11.0011891,11.5517036 L11,11.5 L11,8 C11,7.48716416 11.3860402,7.06449284 11.8833789,7.00672773 L12,7 L16,7 Z M8,7 C8.51283584,7 8.93550716,7.38604019 8.99327227,7.88337887 L9,8 L9,16.5 C9,17.0522847 8.55228475,17.5 8,17.5 C7.48716416,17.5 7.06449284,17.1139598 7.00672773,16.6166211 L7,16.5 L7,8 C7,7.44771525 7.44771525,7 8,7 Z"></path></svg>