<svg xmlns="http://www.w3.org/2000/svg" aria-label="Change volume" aria-hidden="true" class="icon" fill="currentColor" height="24" role="img" viewBox="0 0 24 24" width="24">
  <path d="M2,7 L5,7 L5,7 L7.21913119,4.22608601 C7.56414074,3.79482408 8.19343311,3.7249027 8.62469505,4.06991225 C8.86191028,4.25968444 9,4.54699734 9,4.85078106 L9,19.1492189 C9,19.7015037 8.55228475,20.1492189 8,20.1492189 C7.69621628,20.1492189 7.40890338,20.0111292 7.21913119,19.773914 L5,17 L5,17 L2,17 C0.8954305,17 1.3527075e-16,16.1045695 0,15 L0,9 C-1.3527075e-16,7.8954305 0.8954305,7 2,7 Z"></path>
  <path class="volume--path-mute" d="M8.62469505,4.06991225 C8.86191028,4.25968444 9,4.54699734 9,4.85078106 L9,19.1492189 C9,19.7015037 8.55228475,20.1492189 8,20.1492189 C7.69621628,20.1492189 7.40890338,20.0111292 7.21913119,19.773914 L5,17 L2,17 C0.8954305,17 1.3527075e-16,16.1045695 0,15 L0,9 C-1.3527075e-16,7.8954305 0.8954305,7 2,7 L5,7 L7.21913119,4.22608601 C7.56414074,3.79482408 8.19343311,3.7249027 8.62469505,4.06991225 Z M13.5114029,8.14038077 L13.6128994,8.20970461 L13.7071068,8.29289322 L16.5,11.085 L19.2928932,8.29289322 C19.6834175,7.90236893 20.3165825,7.90236893 20.7071068,8.29289322 C21.0675907,8.65337718 21.0953203,9.22060824 20.7902954,9.61289944 L20.7071068,9.70710678 L17.914,12.5 L20.7071068,15.2928932 C21.0976311,15.6834175 21.0976311,16.3165825 20.7071068,16.7071068 C20.3466228,17.0675907 19.7793918,17.0953203 19.3871006,16.7902954 L19.2928932,16.7071068 L16.5,13.914 L13.7071068,16.7071068 C13.3165825,17.0976311 12.6834175,17.0976311 12.2928932,16.7071068 C11.9324093,16.3466228 11.9046797,15.7793918 12.2097046,15.3871006 L12.2928932,15.2928932 L15.085,12.5 L12.2928932,9.70710678 C11.9023689,9.31658249 11.9023689,8.68341751 12.2928932,8.29289322 C12.6233369,7.96244959 13.1275055,7.91161211 13.5114029,8.14038077 Z"></path>
</svg>