<svg xmlns="http://www.w3.org/2000/svg" aria-label="Show visualizer" aria-hidden="true" class="icon" fill="currentColor" height="24" role="img" viewBox="0 0 24 24" width="24"><path d="M8 1C8 0.447716 8.44771 0 9 0C9.55229 0 10 0.447715 10 1V23C10 23.5523 9.55229 24 9 24C8.44771 24 8 23.5523 8 23V1ZM5 4C4.44772 4 4 4.44772 4 5V19C4 19.5523 4.44772 20 5 20C5.55228 20 6 19.5523 6 19V5C6 4.44772 5.55228 4 5 4ZM1 9C0.447715 9 0 9.44772 0 10V14C0 14.5523 0.447715 15 1 15C1.55228 15 2 14.5523 2 14V10C2 9.44772 1.55228 9 1 9ZM13 6C12.4477 6 12 6.44771 12 7V17C12 17.5523 12.4477 18 13 18C13.5523 18 14 17.5523 14 17V7C14 6.44772 13.5523 6 13 6ZM16 3C16 2.44772 16.4477 2 17 2C17.5523 2 18 2.44772 18 3V21C18 21.5523 17.5523 22 17 22C16.4477 22 16 21.5523 16 21V3ZM21 8C20.4477 8 20 8.44771 20 9V15C20 15.5523 20.4477 16 21 16C21.5523 16 22 15.5523 22 15V9C22 8.44771 21.5523 8 21 8Z"></path></svg>