<svg xmlns="http://www.w3.org/2000/svg" aria-label="Change volume" aria-hidden="true" class="icon" fill="currentColor" height="24" role="img" viewBox="0 0 24 24" width="24"><path d="M2,7 L5,7 L5,7 L7.21913119,4.22608601 C7.56414074,3.79482408 8.19343311,3.7249027 8.62469505,4.06991225 C8.86191028,4.25968444 9,4.54699734 9,4.85078106 L9,19.1492189 C9,19.7015037 8.55228475,20.1492189 8,20.1492189 C7.69621628,20.1492189 7.40890338,20.0111292 7.21913119,19.773914 L5,17 L5,17 L2,17 C0.8954305,17 1.3527075e-16,16.1045695 0,15 L0,9 C-1.3527075e-16,7.8954305 0.8954305,7 2,7 Z"></path><path class="volume--path-low" d="M12,8 C14.209139,8 16,9.790861 16,12 C16,14.209139 14.209139,16 12,16 C11.4477153,16 11,15.5522847 11,15 C11,14.4871642 11.3860402,14.0644928 11.8833789,14.0067277 L12,14 C13.1045695,14 14,13.1045695 14,12 C14,10.8954305 13.1045695,10 12,10 C11.4477153,10 11,9.55228475 11,9 C11,8.44771525 11.4477153,8 12,8 Z"></path><path class="volume--path-mid" d="M12,4 C16.418278,4 20,7.581722 20,12 C20,16.418278 16.418278,20 12,20 C11.4477153,20 11,19.5522847 11,19 C11,18.4477153 11.4477153,18 12,18 C15.3137085,18 18,15.3137085 18,12 C18,8.6862915 15.3137085,6 12,6 C11.4477153,6 11,5.55228475 11,5 C11,4.44771525 11.4477153,4 12,4 Z"></path><path class="volume--path-high" d="M12,0 C18.627417,0 24,5.372583 24,12 C24,18.627417 18.627417,24 12,24 C11.4477153,24 11,23.5522847 11,23 C11,22.4477153 11.4477153,22 12,22 C17.5228475,22 22,17.5228475 22,12 C22,6.4771525 17.5228475,2 12,2 C11.4477153,2 11,1.55228475 11,1 C11,0.44771525 11.4477153,0 12,0 Z"></path></svg>